<svg version="1.1" id="Layer_1" xmlns="http://www.w3.org/2000/svg" xmlns:xlink="http://www.w3.org/1999/xlink" x="0px" y="0px"
	 width="100%" viewBox="0 0 496 496" enable-background="new 0 0 496 496" xml:space="preserve">
<path fill="#000000" opacity="1.000000" stroke="none" 
	d="
M130.512695,244.142700 
	C124.921295,238.083832 117.921806,234.386383 111.737747,229.627731 
	C107.915756,226.686707 104.058693,223.789200 100.296997,220.772858 
	C98.729561,219.516006 97.196487,218.011826 97.903870,215.688995 
	C98.714287,213.027847 101.094589,213.628937 102.955833,213.702469 
	C110.643776,214.006134 117.973831,216.319000 125.385834,218.074661 
	C133.461990,219.987610 141.515228,222.057907 149.456741,224.461807 
	C157.437943,226.877731 164.492691,225.643814 171.051056,220.570465 
	C178.346359,214.927032 186.387665,210.561417 195.054611,207.432724 
	C202.345444,204.800812 207.367538,206.877502 208.609497,212.805283 
	C209.470596,216.915268 207.324646,219.803833 204.559235,222.401886 
	C197.627304,228.914413 190.055405,234.695724 182.138931,239.855240 
	C173.399536,245.551071 169.889755,253.318512 169.702957,263.330078 
	C169.492279,274.621246 169.899673,285.936707 168.418152,297.194519 
	C168.045059,300.029541 167.439163,302.759460 166.516220,305.412720 
	C165.073715,309.559601 162.167252,310.220276 158.960663,307.218475 
	C154.998474,303.509247 154.796661,298.280121 153.740524,293.483795 
	C152.171509,286.358398 151.144501,279.114014 149.592850,271.984283 
	C148.186966,265.524292 146.034149,264.601379 140.307678,267.454437 
	C132.403030,271.392700 124.281540,272.620239 115.686531,269.821167 
	C108.752930,267.563141 101.622124,266.175903 93.925293,265.718842 
	C94.122498,268.701630 96.476982,269.980072 98.111923,271.525909 
	C104.288040,277.365387 109.689789,283.467804 109.470612,292.774628 
	C109.411407,295.288635 111.434082,296.758453 113.889412,296.432404 
	C116.659523,296.064484 116.057228,294.025757 115.917786,291.845276 
	C115.671745,287.997864 113.674423,284.183777 115.073402,280.245392 
	C117.527924,279.900604 118.068794,281.477570 118.184837,282.910797 
	C118.492584,286.711487 119.765938,290.397827 119.364464,294.288452 
	C119.125114,296.608063 119.592796,299.303101 116.091728,299.304230 
	C112.582840,299.305389 107.027321,300.591522 107.041687,295.808685 
	C107.078087,283.689392 98.189644,277.726074 91.517700,270.101044 
	C90.108353,268.490387 88.096817,266.965942 89.031502,264.516632 
	C90.059906,261.821716 92.680336,262.774994 94.718521,262.691559 
	C101.800758,262.401611 108.582619,264.237518 115.266808,266.164795 
	C123.681839,268.591095 131.523361,268.215363 139.322891,263.862823 
	C145.786575,260.255768 150.337494,262.291168 152.097626,269.392365 
	C154.410294,278.722931 156.270187,288.164978 158.402374,297.541443 
	C158.974930,300.059265 159.222061,302.823517 161.989609,304.569489 
	C165.690247,302.197723 165.449844,298.140442 165.516098,294.833130 
	C165.752518,283.028687 167.010941,271.275574 166.795029,259.437958 
	C166.651337,251.560577 169.176727,244.734619 176.420929,239.793335 
	C185.191803,233.810760 193.376846,226.942505 201.577515,220.169479 
	C203.647095,218.460190 206.932358,216.394913 204.890045,212.761108 
	C203.542862,210.364136 201.577393,208.903183 198.252228,209.936691 
	C189.200455,212.750107 181.552155,218.064941 173.613708,222.936615 
	C170.151917,225.061035 167.151337,227.818436 162.760193,228.701843 
	C156.816055,229.897690 151.583008,227.830124 146.167969,226.593475 
	C133.867355,223.784348 121.645515,220.631653 109.370934,217.705551 
	C107.487129,217.256454 105.493172,217.269455 102.742081,216.985260 
	C104.986519,220.810898 108.002937,222.562256 110.664627,224.556595 
	C116.658714,229.047867 122.812866,233.326660 128.930450,237.651505 
	C132.517273,240.187225 135.447891,243.024597 134.027130,247.977615 
	C132.908371,251.877777 126.930771,256.292084 122.160767,256.650818 
	C121.922829,253.361664 125.002869,252.948898 126.651749,251.485352 
	C128.845078,249.538559 131.850769,248.198212 130.512695,244.142700 
z"/>
<path fill="#000000" opacity="1.000000" stroke="none" 
	d="
M290.663116,284.971069 
	C287.752106,284.909973 287.562256,286.968872 287.469818,288.727692 
	C287.357391,290.867188 287.549530,293.051178 287.860504,295.179352 
	C289.039734,303.250214 286.517365,305.599792 278.955170,302.962494 
	C277.510284,302.458588 277.497131,303.125641 276.768372,303.682861 
	C274.000610,305.798981 270.214447,304.445221 269.726746,300.901764 
	C268.084747,288.972076 268.565277,276.976257 269.232544,265.002594 
	C269.339508,263.083374 269.807861,260.748901 272.504791,260.704315 
	C275.331665,260.657562 276.805359,262.656403 277.114288,265.095825 
	C277.488525,268.050995 277.199310,271.084167 277.324402,274.078308 
	C277.502411,278.339630 280.487000,280.067902 284.349915,278.230774 
	C292.297760,274.450928 298.950684,278.069183 300.419556,286.810608 
	C300.978302,290.135956 301.193909,293.446564 300.787872,296.754059 
	C300.456360,299.454224 300.532990,303.250031 296.730804,303.034882 
	C293.399445,302.846405 292.647766,299.637360 292.748230,296.534149 
	C292.818298,294.370178 292.770020,292.201752 292.748627,290.035583 
	C292.730469,288.194672 292.772369,286.319122 290.663116,284.971069 
z"/>
<path fill="#000000" opacity="1.000000" stroke="none" 
	d="
M302.834717,289.292084 
	C305.114838,284.803589 307.987976,281.887543 313.395905,282.914062 
	C313.676575,278.822632 313.850403,275.047760 314.224457,271.292816 
	C314.456177,268.966614 315.511292,266.976349 318.221466,267.111206 
	C321.033600,267.251129 323.042847,268.879028 323.079224,271.786102 
	C323.203735,281.735809 323.400330,291.699158 323.004517,301.634796 
	C322.796295,306.861145 318.995117,308.180969 314.831055,304.980438 
	C313.908112,304.271057 313.156586,303.545105 311.829376,303.517059 
	C303.346313,303.337952 300.815186,300.356598 301.996735,292.043701 
	C302.112122,291.232056 302.438141,290.450378 302.834717,289.292084 
M310.496429,292.456757 
	C307.397003,296.299408 310.209747,297.510254 313.502899,299.046204 
	C313.416870,296.281494 312.738373,294.253021 310.496429,292.456757 
z"/>
<path fill="#000000" opacity="1.000000" stroke="none" 
	d="
M233.825287,295.399384 
	C230.163025,292.268799 228.012421,282.664520 229.797409,278.705658 
	C230.788956,276.506531 232.653061,275.937408 234.768585,276.629028 
	C237.100433,277.391388 238.291122,279.127747 237.675781,281.641663 
	C237.182770,283.655945 235.631851,285.522675 237.078903,288.021759 
	C239.980591,287.270538 239.528412,284.966003 239.692017,282.940247 
	C239.828552,281.249725 239.032211,278.712341 241.677750,278.595398 
	C244.259415,278.481262 247.028687,279.800385 247.103592,282.659637 
	C247.333344,291.428284 248.321732,300.320221 245.608383,308.890137 
	C243.452606,315.698914 239.231491,317.108063 233.551285,312.942963 
	C230.880447,310.984497 226.871750,310.326752 226.095932,306.237854 
	C227.342010,304.134705 229.334076,304.656219 231.061066,304.782959 
	C238.891235,305.357635 238.888168,305.399353 239.231674,297.174225 
	C237.902420,295.619232 235.756119,296.457642 233.825287,295.399384 
z"/>
<path fill="#000000" opacity="1.000000" stroke="none" 
	d="
M224.113525,281.134125 
	C224.840210,283.231049 225.561493,284.938751 225.901138,286.719238 
	C227.218796,293.626587 223.653778,297.051086 214.573242,297.416046 
	C214.177780,301.621674 213.687881,305.874817 213.410370,310.141785 
	C213.243591,312.706146 212.843628,315.035767 209.628006,314.769318 
	C206.630188,314.520966 205.400925,312.461151 205.446243,309.555695 
	C205.510895,305.409760 205.525925,301.262787 205.621429,297.117645 
	C205.713486,293.121002 205.548004,289.171478 204.967117,285.187347 
	C204.245255,280.236298 205.940216,278.437775 210.869568,278.324493 
	C212.084503,278.296539 213.142899,278.109894 214.211334,277.607666 
	C218.435455,275.622192 221.609482,276.908936 224.113525,281.134125 
M217.648880,285.886200 
	C215.388016,287.061493 214.985519,288.850769 215.754822,291.362366 
	C219.641998,290.787872 219.255859,288.597443 217.648880,285.886200 
z"/>
<path fill="#000000" opacity="1.000000" stroke="none" 
	d="
M335.405273,287.855560 
	C336.615448,282.636261 339.034424,278.644073 343.825073,277.004578 
	C349.855103,274.940826 355.830139,280.083923 356.245483,287.434845 
	C356.414124,290.419708 356.383057,293.431152 356.203064,296.416046 
	C356.028931,299.303284 356.508087,301.984772 358.042877,304.384277 
	C357.567688,304.741119 357.223022,305.159515 357.061676,305.097931 
	C352.042419,303.181427 346.777557,303.490143 341.565216,302.984589 
	C336.184296,302.462646 333.944183,296.233276 335.405273,287.855560 
M346.949768,287.296356 
	C345.712708,289.090332 343.836060,290.721558 345.685730,294.140656 
	C348.439423,291.812195 349.297913,289.767059 346.949768,287.296356 
z"/>
<path fill="#000000" opacity="1.000000" stroke="none" 
	d="
M175.168213,283.088074 
	C175.092026,282.038452 174.820969,281.158356 175.144623,280.752686 
	C178.166428,276.964996 187.375000,275.788177 190.949112,278.684265 
	C192.841034,280.217316 194.449738,282.211639 193.716248,284.669525 
	C192.886749,287.449097 190.213150,287.277618 187.833984,287.137878 
	C186.868484,287.081177 185.904297,287.002472 184.816452,286.924957 
	C183.349838,291.007568 184.480453,295.028778 184.162384,298.956207 
	C183.949951,301.579071 183.686157,304.192596 180.229568,304.200745 
	C176.569687,304.209381 176.806335,301.443787 176.624847,298.876740 
	C176.261459,293.736969 175.718201,288.609955 175.168213,283.088074 
z"/>
<path fill="#000000" opacity="1.000000" stroke="none" 
	d="
M325.146118,296.174957 
	C324.996704,292.446655 324.875366,289.132080 324.933899,285.820709 
	C324.972748,283.623535 326.306000,282.553589 328.481628,282.529175 
	C330.667358,282.504608 332.068573,283.645935 332.154846,285.749115 
	C332.396973,291.652863 331.991699,297.517914 330.621552,303.739929 
	C327.020905,302.261597 326.518097,299.133331 325.146118,296.174957 
z"/>
<path fill="#000000" opacity="1.000000" stroke="none" 
	d="
M195.690582,291.843262 
	C195.691269,290.058502 195.698898,288.735748 195.704498,287.413025 
	C195.714981,284.928925 195.992538,282.579376 199.314453,282.731506 
	C202.209076,282.864075 203.408020,284.666016 203.203064,287.386017 
	C202.808395,292.624084 202.302902,297.853821 201.731461,304.361359 
	C196.838867,301.016357 195.759613,296.940308 195.690582,291.843262 
z"/>
<path fill="#000000" opacity="1.000000" stroke="none" 
	d="
M324.536865,274.597778 
	C324.214172,270.312897 326.312256,268.108978 330.002899,268.387421 
	C332.691895,268.590240 332.856537,271.430878 332.584808,273.529144 
	C332.099121,277.279388 328.697144,277.827484 324.536865,274.597778 
z"/>
<path fill="#000000" opacity="1.000000" stroke="none" 
	d="
M203.485947,272.201172 
	C203.235657,275.479797 201.806015,277.165131 198.687103,276.741730 
	C197.015732,276.514862 195.289856,276.027649 195.179276,273.922882 
	C195.043472,271.337952 196.284805,269.502869 198.731308,268.577942 
	C201.851028,267.398529 202.920105,269.230591 203.485947,272.201172 
z"/>
</svg>