<svg version="1.1" id="Layer_1" xmlns="http://www.w3.org/2000/svg" xmlns:xlink="http://www.w3.org/1999/xlink" x="0px" y="0px"
	 width="100%" viewBox="0 0 500 500" enable-background="new 0 0 500 500" xml:space="preserve">
<path fill="#FFFFFF" opacity="1.000000" stroke="none" 
	d="
M501.000000,180.000000 
	C501.000000,287.333313 501.000000,394.166595 501.000000,500.999939 
	C334.333405,500.999939 167.666794,500.999939 1.000147,500.999969 
	C1.000098,334.333435 1.000098,167.666870 1.000049,1.000236 
	C167.666519,1.000157 334.333038,1.000157 500.999786,1.000079 
	C501.000000,60.500000 501.000000,120.000000 501.000000,180.000000 
M22.883039,93.321838 
	C19.285469,89.819237 15.687898,86.316628 11.789263,82.043655 
	C11.342314,81.256599 10.895365,80.469551 9.803761,78.547302 
	C15.278287,79.310982 19.610008,79.891319 23.934134,80.523590 
	C32.097137,81.717209 39.746712,86.652908 48.425594,84.003990 
	C51.710243,83.001480 55.041496,81.981506 58.110111,80.477119 
	C64.293266,77.445793 66.070900,78.023399 67.978218,84.729805 
	C68.868912,87.861603 69.274849,91.128128 69.994568,94.312317 
	C71.762840,102.135551 73.290756,110.035309 75.599434,117.698181 
	C76.158150,119.552628 79.225281,121.121452 81.439804,121.734116 
	C82.148163,121.930092 84.016167,118.722672 84.994232,116.881546 
	C85.658714,115.630707 85.901291,114.059082 85.983994,112.611008 
	C86.711533,99.871773 87.678696,87.134026 87.917603,74.383522 
	C88.068176,66.347313 90.860428,60.056004 97.678658,54.815868 
	C105.859886,48.645645 114.458702,42.945103 122.091866,36.158459 
	C128.339783,30.603428 128.704285,26.726616 123.841919,22.264841 
	C121.426865,20.006241 118.711815,19.395555 115.713455,20.948952 
	C107.377945,25.267427 98.643661,28.993408 90.860794,34.151340 
	C83.136337,39.270550 75.811523,40.946026 66.720566,38.453854 
	C51.732857,34.345165 36.486832,31.162935 21.294413,27.843159 
	C19.893957,27.537136 18.095514,29.052443 16.481873,29.722029 
	C17.340851,31.036610 18.199829,32.351192 19.758183,33.857677 
	C21.073570,35.271183 22.211617,36.922672 23.734602,38.057594 
	C30.876024,43.379356 38.120483,48.562962 45.333717,53.788216 
	C51.584286,58.316120 51.595119,61.371162 45.384377,65.763474 
	C43.445118,67.134941 41.540287,68.555069 39.619698,69.952919 
	C39.983112,70.447166 40.346531,70.941406 40.709946,71.435654 
	C43.346218,69.630753 46.181553,68.055084 48.578041,65.974052 
	C53.848682,61.397194 53.503963,56.689007 47.816223,52.517628 
	C43.162029,49.104252 38.530861,45.652454 33.763256,42.402885 
	C29.679981,39.619759 25.417685,37.099274 21.234566,34.462631 
	C20.884228,34.796341 20.533892,35.130051 20.183556,35.463757 
	C19.970142,33.603207 19.756729,31.742653 20.445782,29.978397 
	C21.771036,30.041067 23.147646,29.891901 24.413681,30.198833 
	C38.691792,33.660362 52.981705,37.080215 67.207848,40.746426 
	C75.767952,42.952446 83.445518,42.544952 90.926758,36.863506 
	C96.730797,32.455765 103.319130,28.908419 109.956726,25.839046 
	C113.599411,24.154577 118.065666,24.251089 122.623474,24.163368 
	C125.482445,28.345703 123.907288,31.681528 120.455292,34.449783 
	C112.283508,41.002972 104.031433,47.456039 95.197830,54.210991 
	C89.997559,57.202625 86.715652,61.750130 86.093918,67.597893 
	C85.323982,74.839539 85.305672,82.161369 84.971115,89.448959 
	C84.630005,96.879517 84.478371,104.325302 83.868713,111.733551 
	C83.648918,114.404305 82.339821,116.985413 81.527817,119.607430 
	C80.930267,119.644302 80.332710,119.681175 79.735161,119.718048 
	C78.816689,117.941780 77.500992,116.261246 77.046043,114.373276 
	C74.607185,104.252472 72.212486,94.114571 70.141205,83.913811 
	C68.634285,76.492424 64.423653,74.115105 57.383659,78.254807 
	C49.799240,82.714645 42.035538,82.785706 33.684750,80.395096 
	C25.404703,78.024742 16.932064,75.833344 6.371396,77.541328 
	C8.241347,80.249786 9.556184,82.154213 11.147940,84.673325 
	C14.380322,87.800598 17.612703,90.927879 21.195559,94.694275 
	C22.450916,98.801308 23.572655,102.956329 25.022507,106.993515 
	C25.669907,108.796242 26.976662,110.362175 28.440388,112.733696 
	C37.026142,113.543007 37.033062,113.542992 37.015518,105.030396 
	C37.012104,103.373451 37.194881,101.654663 36.822693,100.074905 
	C36.311897,97.906830 35.353458,95.844223 34.586845,93.736420 
	C33.990398,93.931274 33.393951,94.126129 32.797504,94.320984 
	C33.436470,97.627106 34.017120,100.945824 34.727325,104.236572 
	C35.960968,109.952621 35.111855,111.032425 28.917828,110.184692 
	C28.289789,108.633659 27.590261,107.107170 27.047890,105.526733 
	C25.724886,101.671577 24.474669,97.791435 22.883039,93.321838 
M191.610138,64.658989 
	C191.125290,64.094925 190.640442,63.530869 189.619034,62.489590 
	C186.096207,59.568275 184.169800,61.505356 184.100784,64.966240 
	C183.867157,76.680878 183.911453,88.407227 184.173752,100.121841 
	C184.253616,103.688049 188.108734,104.778084 191.717087,102.001396 
	C192.096130,101.681374 192.475189,101.361351 193.037796,101.764816 
	C195.400604,102.181450 197.932709,103.262764 200.051926,102.722992 
	C201.051117,102.468491 201.657059,99.118042 201.732315,97.143402 
	C201.851837,94.007622 201.054276,90.823189 201.304718,87.712486 
	C201.412659,86.371742 203.169952,85.163788 204.177963,83.895500 
	C205.312805,85.124168 207.200180,86.227859 207.429214,87.606956 
	C207.940262,90.684235 207.292526,93.948685 207.756729,97.040810 
	C208.083893,99.220001 209.463058,101.241264 210.770996,104.249550 
	C215.618713,98.760620 214.050674,93.758224 214.247589,89.123909 
	C214.454865,84.245781 212.611664,80.234558 208.108505,78.041435 
	C203.844910,75.964973 200.011261,77.379387 196.919113,80.296539 
	C195.101715,79.816399 193.544495,79.404991 191.619537,78.839256 
	C191.619537,78.839256 191.236481,78.950188 190.961090,78.062851 
	C191.022949,73.696953 191.084808,69.331047 191.610138,64.658989 
M120.062431,95.975639 
	C120.103653,100.631042 120.144875,105.286453 119.995316,110.590446 
	C120.705925,111.591682 121.416527,112.592926 122.865845,114.054680 
	C125.890457,114.743942 127.163246,113.512466 127.231339,110.440750 
	C127.330879,105.950752 127.672897,101.466133 128.828171,96.760803 
	C129.121063,96.647354 129.413940,96.533905 130.456207,96.460564 
	C134.192932,97.565865 137.066742,96.202744 138.936798,93.028793 
	C141.146149,89.279007 139.140106,81.211945 135.558975,78.439590 
	C133.750305,77.039391 122.397675,78.074181 120.888550,79.952530 
	C120.228722,80.773781 119.779266,82.065247 119.843750,83.105400 
	C119.983887,85.365997 120.515762,87.602303 120.286774,90.355507 
	C120.252609,91.923134 120.218452,93.490753 120.062431,95.975639 
M237.034103,98.269905 
	C236.876999,89.941154 236.658875,81.612877 236.594849,73.283417 
	C236.571442,70.236160 235.764557,67.827934 232.369064,67.701904 
	C228.591110,67.561668 228.958862,70.651482 228.879944,73.073357 
	C228.762863,76.666931 228.849625,80.267159 228.849625,84.704437 
	C222.449951,81.520538 219.782837,85.106552 217.970016,89.184387 
	C216.182724,93.204803 215.255997,98.022972 218.816711,101.301369 
	C220.726379,103.059639 224.460938,102.835876 227.372025,103.506516 
	C229.468536,104.082809 231.562820,105.745575 233.802567,105.972427 
	C234.665009,106.059784 235.922409,102.915497 236.862183,101.169556 
	C237.148193,100.638184 236.974228,99.859215 237.034103,98.269905 
M149.949387,113.572990 
	C155.133469,115.847183 158.680084,114.254288 159.685806,107.853577 
	C160.865952,100.342812 160.791245,92.639236 161.364777,85.027122 
	C161.696518,80.624100 159.101532,79.380272 155.472794,78.901016 
	C153.391510,82.169479 156.779816,87.580070 150.131393,89.737579 
	C150.735367,86.390549 151.629639,83.861496 151.474670,81.398453 
	C151.379211,79.881004 149.959000,77.794182 148.608002,77.236748 
	C147.699753,76.862000 145.055527,78.402229 144.587997,79.622231 
	C141.452850,87.803223 146.014099,95.048866 154.871445,95.663292 
	C154.270203,99.379333 153.676941,103.046120 153.081345,106.727257 
	C148.754364,106.072243 145.002045,105.504219 141.249710,104.936195 
	C141.004196,105.523697 140.758667,106.111198 140.513153,106.698700 
	C143.450333,108.853882 146.387497,111.009064 149.949387,113.572990 
M252.224136,82.738342 
	C251.359970,85.402214 250.096283,88.011574 249.723679,90.742508 
	C249.140137,95.019234 249.637527,99.707237 253.989594,101.569275 
	C257.022095,102.866737 260.900940,102.186218 264.401703,102.389275 
	C264.347137,102.078186 264.292542,101.767097 264.237946,101.456009 
	C266.574249,102.799423 268.910522,104.142838 271.885590,105.853554 
	C270.891632,103.149963 270.093475,101.738167 269.870544,100.240730 
	C268.922272,93.872299 273.164215,86.470146 266.028564,81.350235 
	C266.569092,75.975563 262.468079,76.512970 259.742493,77.293228 
	C257.129364,78.041306 254.993423,80.456451 252.224136,82.738342 
M92.288048,103.079674 
	C96.693329,105.188889 98.023544,102.929283 98.060699,98.963829 
	C98.101738,94.582405 98.070068,90.200302 98.070068,85.267349 
	C99.744751,85.790703 100.689987,86.401978 101.539017,86.289169 
	C103.654175,86.008110 105.725548,85.397507 107.814499,84.919205 
	C106.999199,83.050232 106.649040,80.165024 105.267693,79.532776 
	C102.723145,78.368134 99.544731,78.093102 96.683884,78.277245 
	C94.535126,78.415550 92.469971,79.852531 90.225960,80.769226 
	C90.735840,87.649780 91.282089,95.021156 92.288048,103.079674 
M117.177277,86.170906 
	C116.512993,82.306366 114.028648,82.669708 110.947578,83.452400 
	C110.847954,90.558037 109.264122,97.737488 115.823967,103.926834 
	C116.313118,97.749245 116.741783,92.335533 117.177277,86.170906 
M243.532837,102.518967 
	C243.948578,102.696884 244.364304,102.874802 244.780045,103.052711 
	C245.283340,97.182526 245.933990,91.316879 246.114761,85.436783 
	C246.138992,84.648079 243.847153,83.302574 242.519440,83.148354 
	C241.777176,83.062141 240.114151,84.861336 240.062836,85.871727 
	C239.779526,91.451096 239.216965,97.175346 243.532837,102.518967 
M239.508820,72.709023 
	C240.349915,73.845352 240.981323,75.529900 242.094238,75.955597 
	C243.100006,76.340317 245.253632,75.731201 245.781128,74.872429 
	C246.508926,73.687584 246.710815,71.652924 246.203934,70.343964 
	C245.081085,67.444290 242.527466,68.128479 239.508820,72.709023 
M115.829651,68.898888 
	C112.443085,68.575386 110.071426,70.017021 110.256981,73.455017 
	C110.313385,74.499954 113.185066,76.438904 114.397385,76.187119 
	C118.718002,75.289803 117.852310,72.228981 115.829651,68.898888 
z"/>
<path fill="#121212" opacity="1.000000" stroke="none" 
	d="
M10.871021,84.058640 
	C9.556184,82.154213 8.241347,80.249786 6.371396,77.541328 
	C16.932064,75.833344 25.404703,78.024742 33.684750,80.395096 
	C42.035538,82.785706 49.799240,82.714645 57.383659,78.254807 
	C64.423653,74.115105 68.634285,76.492424 70.141205,83.913811 
	C72.212486,94.114571 74.607185,104.252472 77.046043,114.373276 
	C77.500992,116.261246 78.816689,117.941780 79.735161,119.718048 
	C80.332710,119.681175 80.930267,119.644302 81.527817,119.607430 
	C82.339821,116.985413 83.648918,114.404305 83.868713,111.733551 
	C84.478371,104.325302 84.630005,96.879517 84.971115,89.448959 
	C85.305672,82.161369 85.323982,74.839539 86.093918,67.597893 
	C86.715652,61.750130 89.997559,57.202625 95.770752,54.210697 
	C96.582451,54.518734 96.821236,54.827065 97.060020,55.135395 
	C90.860428,60.056004 88.068176,66.347313 87.917603,74.383522 
	C87.678696,87.134026 86.711533,99.871773 85.983994,112.611008 
	C85.901291,114.059082 85.658714,115.630707 84.994232,116.881546 
	C84.016167,118.722672 82.148163,121.930092 81.439804,121.734116 
	C79.225281,121.121452 76.158150,119.552628 75.599434,117.698181 
	C73.290756,110.035309 71.762840,102.135551 69.994568,94.312317 
	C69.274849,91.128128 68.868912,87.861603 67.978218,84.729805 
	C66.070900,78.023399 64.293266,77.445793 58.110111,80.477119 
	C55.041496,81.981506 51.710243,83.001480 48.425594,84.003990 
	C39.746712,86.652908 32.097137,81.717209 23.934134,80.523590 
	C19.610008,79.891319 15.278287,79.310982 9.803761,78.547302 
	C10.895365,80.469551 11.342314,81.256599 11.799997,82.693100 
	C11.497496,83.581245 11.184258,83.819946 10.871021,84.058640 
z"/>
<path fill="#121212" opacity="1.000000" stroke="none" 
	d="
M237.022522,98.731781 
	C236.974228,99.859215 237.148193,100.638184 236.862183,101.169556 
	C235.922409,102.915497 234.665009,106.059784 233.802567,105.972427 
	C231.562820,105.745575 229.468536,104.082809 227.372025,103.506516 
	C224.460938,102.835876 220.726379,103.059639 218.816711,101.301369 
	C215.255997,98.022972 216.182724,93.204803 217.970016,89.184387 
	C219.782837,85.106552 222.449951,81.520538 228.849625,84.704437 
	C228.849625,80.267159 228.762863,76.666931 228.879944,73.073357 
	C228.958862,70.651482 228.591110,67.561668 232.369064,67.701904 
	C235.764557,67.827934 236.571442,70.236160 236.594849,73.283417 
	C236.658875,81.612877 236.876999,89.941154 237.022522,98.731781 
M228.127747,100.686142 
	C229.192062,96.468414 227.386963,93.426880 224.479858,90.340340 
	C220.605240,95.822060 224.466904,98.240021 228.127747,100.686142 
z"/>
<path fill="#101010" opacity="1.000000" stroke="none" 
	d="
M149.637024,113.368622 
	C146.387497,111.009064 143.450333,108.853882 140.513153,106.698700 
	C140.758667,106.111198 141.004196,105.523697 141.249710,104.936195 
	C145.002045,105.504219 148.754364,106.072243 153.081345,106.727257 
	C153.676941,103.046120 154.270203,99.379333 154.871445,95.663292 
	C146.014099,95.048866 141.452850,87.803223 144.587997,79.622231 
	C145.055527,78.402229 147.699753,76.862000 148.608002,77.236748 
	C149.959000,77.794182 151.379211,79.881004 151.474670,81.398453 
	C151.629639,83.861496 150.735367,86.390549 150.131393,89.737579 
	C156.779816,87.580070 153.391510,82.169479 155.472794,78.901016 
	C159.101532,79.380272 161.696518,80.624100 161.364777,85.027122 
	C160.791245,92.639236 160.865952,100.342812 159.685806,107.853577 
	C158.680084,114.254288 155.133469,115.847183 149.637024,113.368622 
z"/>
<path fill="#0B0B0B" opacity="1.000000" stroke="none" 
	d="
M191.987274,78.993584 
	C193.544495,79.404991 195.101715,79.816399 196.919113,80.296539 
	C200.011261,77.379387 203.844910,75.964973 208.108505,78.041435 
	C212.611664,80.234558 214.454865,84.245781 214.247589,89.123909 
	C214.050674,93.758224 215.618713,98.760620 210.770996,104.249550 
	C209.463058,101.241264 208.083893,99.220001 207.756729,97.040810 
	C207.292526,93.948685 207.940262,90.684235 207.429214,87.606956 
	C207.200180,86.227859 205.312805,85.124168 204.177979,83.895508 
	C203.169952,85.163788 201.412659,86.371742 201.304718,87.712486 
	C201.054276,90.823189 201.851837,94.007622 201.732315,97.143402 
	C201.657059,99.118042 201.051117,102.468491 200.051926,102.722992 
	C197.932709,103.262764 195.400604,102.181450 193.019989,100.937790 
	C192.663895,93.071701 192.325577,86.032639 191.987274,78.993584 
z"/>
<path fill="#0E0E0E" opacity="1.000000" stroke="none" 
	d="
M252.435959,82.438652 
	C254.993423,80.456451 257.129364,78.041306 259.742493,77.293228 
	C262.468079,76.512970 266.569092,75.975563 266.028564,81.350235 
	C273.164215,86.470146 268.922272,93.872299 269.870544,100.240730 
	C270.093475,101.738167 270.891632,103.149963 271.885590,105.853554 
	C268.910522,104.142838 266.574249,102.799423 264.237946,101.456009 
	C264.292542,101.767097 264.347137,102.078186 264.401703,102.389275 
	C260.900940,102.186218 257.022095,102.866737 253.989594,101.569275 
	C249.637527,99.707237 249.140137,95.019234 249.723679,90.742508 
	C250.096283,88.011574 251.359970,85.402214 252.435959,82.438652 
M261.189972,94.397179 
	C264.770020,91.804398 263.013458,88.559204 262.661285,84.213478 
	C260.856812,86.775566 259.408081,88.210335 258.747253,89.945221 
	C258.081970,91.691772 256.733032,94.292290 261.189972,94.397179 
z"/>
<path fill="#101010" opacity="1.000000" stroke="none" 
	d="
M120.887497,89.848541 
	C120.515762,87.602303 119.983887,85.365997 119.843750,83.105400 
	C119.779266,82.065247 120.228722,80.773781 120.888550,79.952530 
	C122.397675,78.074181 133.750305,77.039391 135.558975,78.439590 
	C139.140106,81.211945 141.146149,89.279007 138.936798,93.028793 
	C137.066742,96.202744 134.192932,97.565865 129.852020,96.151695 
	C129.739548,94.631714 129.883041,92.886330 130.782150,92.300339 
	C135.076553,89.501534 135.349609,88.213257 131.752701,83.849915 
	C127.462387,87.386475 128.564972,92.452637 127.911568,96.979218 
	C127.672897,101.466133 127.330879,105.950752 127.231339,110.440750 
	C127.163246,113.512466 125.890457,114.743942 122.514786,113.482803 
	C121.504517,111.921234 120.845306,110.931541 120.186096,109.941856 
	C120.144875,105.286453 120.103653,100.631042 120.468094,95.443787 
	C120.878334,93.224144 120.882912,91.536339 120.887497,89.848541 
z"/>
<path fill="#0E0E0E" opacity="1.000000" stroke="none" 
	d="
M191.090118,102.407997 
	C188.108734,104.778084 184.253616,103.688049 184.173752,100.121841 
	C183.911453,88.407227 183.867157,76.680878 184.100784,64.966240 
	C184.169800,61.505356 186.096207,59.568275 189.831589,63.029507 
	C190.411652,64.034668 190.779160,64.499908 191.146667,64.965149 
	C191.084808,69.331047 191.022949,73.696953 190.962006,78.961075 
	C191.005310,87.375526 191.047714,94.891762 191.090118,102.407997 
z"/>
<path fill="#161616" opacity="1.000000" stroke="none" 
	d="
M19.058807,33.665775 
	C18.199829,32.351192 17.340851,31.036610 16.481873,29.722029 
	C18.095514,29.052443 19.893957,27.537136 21.294413,27.843159 
	C36.486832,31.162935 51.732857,34.345165 66.720566,38.453854 
	C75.811523,40.946026 83.136337,39.270550 90.860794,34.151340 
	C98.643661,28.993408 107.377945,25.267427 115.713455,20.948952 
	C118.711815,19.395555 121.426865,20.006241 123.488174,22.732166 
	C122.809814,23.314516 122.485199,23.429539 122.160576,23.544561 
	C118.065666,24.251089 113.599411,24.154577 109.956726,25.839046 
	C103.319130,28.908419 96.730797,32.455765 90.926758,36.863506 
	C83.445518,42.544952 75.767952,42.952446 67.207848,40.746426 
	C52.981705,37.080215 38.691792,33.660362 24.413681,30.198833 
	C23.147646,29.891901 21.771036,30.041067 19.722174,30.018656 
	C19.018646,31.261202 19.038727,32.463490 19.058807,33.665775 
z"/>
<path fill="#121212" opacity="1.000000" stroke="none" 
	d="
M92.058189,102.736107 
	C91.282089,95.021156 90.735840,87.649780 90.225960,80.769226 
	C92.469971,79.852531 94.535126,78.415550 96.683884,78.277245 
	C99.544731,78.093102 102.723145,78.368134 105.267693,79.532776 
	C106.649040,80.165024 106.999199,83.050232 107.814499,84.919205 
	C105.725548,85.397507 103.654175,86.008110 101.539017,86.289169 
	C100.689987,86.401978 99.744751,85.790703 98.070068,85.267349 
	C98.070068,90.200302 98.101738,94.582405 98.060699,98.963829 
	C98.023544,102.929283 96.693329,105.188889 92.058189,102.736107 
z"/>
<path fill="#1D1D1D" opacity="1.000000" stroke="none" 
	d="
M19.408493,33.761726 
	C19.038727,32.463490 19.018646,31.261202 19.270941,29.970507 
	C19.756729,31.742653 19.970142,33.603207 20.183556,35.463757 
	C20.533892,35.130051 20.884228,34.796341 21.234566,34.462631 
	C25.417685,37.099274 29.679981,39.619759 33.763256,42.402885 
	C38.530861,45.652454 43.162029,49.104252 47.816223,52.517628 
	C53.503963,56.689007 53.848682,61.397194 48.578041,65.974052 
	C46.181553,68.055084 43.346218,69.630753 40.709946,71.435654 
	C40.346531,70.941406 39.983112,70.447166 39.619698,69.952919 
	C41.540287,68.555069 43.445118,67.134941 45.384377,65.763474 
	C51.595119,61.371162 51.584286,58.316120 45.333717,53.788216 
	C38.120483,48.562962 30.876024,43.379356 23.734602,38.057594 
	C22.211617,36.922672 21.073570,35.271183 19.408493,33.761726 
z"/>
<path fill="#1D1D1D" opacity="1.000000" stroke="none" 
	d="
M122.392029,23.853966 
	C122.485199,23.429539 122.809814,23.314516 123.635605,23.074148 
	C128.704285,26.726616 128.339783,30.603428 122.091866,36.158459 
	C114.458702,42.945103 105.859886,48.645645 97.369339,54.975632 
	C96.821236,54.827065 96.582451,54.518734 96.077744,54.079994 
	C104.031433,47.456039 112.283508,41.002972 120.455292,34.449783 
	C123.907288,31.681528 125.482445,28.345703 122.392029,23.853966 
z"/>
<path fill="#101010" opacity="1.000000" stroke="none" 
	d="
M117.173859,86.546364 
	C116.741783,92.335533 116.313118,97.749245 115.823967,103.926834 
	C109.264122,97.737488 110.847954,90.558037 110.947578,83.452400 
	C114.028648,82.669708 116.512993,82.306366 117.173859,86.546364 
z"/>
<path fill="#0E0E0E" opacity="1.000000" stroke="none" 
	d="
M243.311462,102.261833 
	C239.216965,97.175346 239.779526,91.451096 240.062836,85.871727 
	C240.114151,84.861336 241.777176,83.062141 242.519440,83.148354 
	C243.847153,83.302574 246.138992,84.648079 246.114761,85.436783 
	C245.933990,91.316879 245.283340,97.182526 244.780045,103.052711 
	C244.364304,102.874802 243.948578,102.696884 243.311462,102.261833 
z"/>
<path fill="#101010" opacity="1.000000" stroke="none" 
	d="
M29.341925,110.855751 
	C35.111855,111.032425 35.960968,109.952621 34.727325,104.236572 
	C34.017120,100.945824 33.436470,97.627106 32.797504,94.320984 
	C33.393951,94.126129 33.990398,93.931274 34.586845,93.736420 
	C35.353458,95.844223 36.311897,97.906830 36.822693,100.074905 
	C37.194881,101.654663 37.012104,103.373451 37.015518,105.030396 
	C37.033062,113.542992 37.026142,113.543007 28.373871,112.121811 
	C28.652210,111.291862 28.997068,111.073807 29.341925,110.855751 
z"/>
<path fill="#1D1D1D" opacity="1.000000" stroke="none" 
	d="
M239.555145,72.363548 
	C242.527466,68.128479 245.081085,67.444290 246.203934,70.343964 
	C246.710815,71.652924 246.508926,73.687584 245.781128,74.872429 
	C245.253632,75.731201 243.100006,76.340317 242.094238,75.955597 
	C240.981323,75.529900 240.349915,73.845352 239.555145,72.363548 
z"/>
<path fill="#1D1D1D" opacity="1.000000" stroke="none" 
	d="
M116.118240,69.089714 
	C117.852310,72.228981 118.718002,75.289803 114.397385,76.187119 
	C113.185066,76.438904 110.313385,74.499954 110.256981,73.455017 
	C110.071426,70.017021 112.443085,68.575386 116.118240,69.089714 
z"/>
<path fill="#161616" opacity="1.000000" stroke="none" 
	d="
M29.129875,110.520218 
	C28.997068,111.073807 28.652210,111.291862 28.145763,111.772751 
	C26.976662,110.362175 25.669907,108.796242 25.022507,106.993515 
	C23.572655,102.956329 22.450916,98.801308 21.412254,94.356888 
	C22.151014,93.986786 22.673080,93.954071 23.195145,93.921356 
	C24.474669,97.791435 25.724886,101.671577 27.047890,105.526733 
	C27.590261,107.107170 28.289789,108.633659 29.129875,110.520218 
z"/>
<path fill="#DADADA" opacity="1.000000" stroke="none" 
	d="
M128.369873,96.870010 
	C128.564972,92.452637 127.462387,87.386475 131.752701,83.849915 
	C135.349609,88.213257 135.076553,89.501534 130.782150,92.300339 
	C129.883041,92.886330 129.739548,94.631714 129.477325,96.131638 
	C129.413940,96.533905 129.121063,96.647354 128.369873,96.870010 
z"/>
<path fill="#DADADA" opacity="1.000000" stroke="none" 
	d="
M191.403595,102.204697 
	C191.047714,94.891762 191.005310,87.375526 191.099701,79.404739 
	C191.236481,78.950188 191.619537,78.839256 191.803406,78.916420 
	C192.325577,86.032639 192.663895,93.071701 192.928223,100.576042 
	C192.475189,101.361351 192.096130,101.681374 191.403595,102.204697 
z"/>
<path fill="#1D1D1D" opacity="1.000000" stroke="none" 
	d="
M23.039093,93.621597 
	C22.673080,93.954071 22.151014,93.986786 21.237017,94.037323 
	C17.612703,90.927879 14.380322,87.800598 11.009481,84.365982 
	C11.184258,83.819946 11.497496,83.581245 11.950529,83.078293 
	C15.687898,86.316628 19.285469,89.819237 23.039093,93.621597 
z"/>
<path fill="#494949" opacity="1.000000" stroke="none" 
	d="
M120.587128,90.102020 
	C120.882912,91.536339 120.878334,93.224144 120.529022,94.985161 
	C120.218452,93.490753 120.252609,91.923134 120.587128,90.102020 
z"/>
<path fill="#494949" opacity="1.000000" stroke="none" 
	d="
M120.090706,110.266151 
	C120.845306,110.931541 121.504517,111.921234 122.145432,113.252548 
	C121.416527,112.592926 120.705925,111.591682 120.090706,110.266151 
z"/>
<path fill="#DADADA" opacity="1.000000" stroke="none" 
	d="
M191.378387,64.812073 
	C190.779160,64.499908 190.411652,64.034668 190.099869,63.268116 
	C190.640442,63.530869 191.125290,64.094925 191.378387,64.812073 
z"/>
<path fill="#DADADA" opacity="1.000000" stroke="none" 
	d="
M227.775604,100.820633 
	C224.466904,98.240021 220.605240,95.822060 224.479858,90.340340 
	C227.386963,93.426880 229.192062,96.468414 227.775604,100.820633 
z"/>
<path fill="#DADADA" opacity="1.000000" stroke="none" 
	d="
M260.828857,94.551956 
	C256.733032,94.292290 258.081970,91.691772 258.747253,89.945221 
	C259.408081,88.210335 260.856812,86.775566 262.661285,84.213478 
	C263.013458,88.559204 264.770020,91.804398 260.828857,94.551956 
z"/>
</svg>