<svg version="1.1" id="Layer_1" xmlns="http://www.w3.org/2000/svg" xmlns:xlink="http://www.w3.org/1999/xlink" x="0px" y="0px"
	 width="100%" viewBox="0 0 283 125" enable-background="new 0 0 283 125" xml:space="preserve">
<path fill="#FDFDFD" opacity="1.000000" stroke="none" 
	d="
M171.000000,126.000000 
	C114.000015,126.000000 57.500034,126.000000 1.000038,126.000000 
	C1.000025,84.333366 1.000025,42.666725 1.000013,1.000066 
	C95.333275,1.000044 189.666550,1.000044 283.999878,1.000022 
	C283.999908,42.666599 283.999908,84.333199 283.999939,125.999893 
	C246.500000,126.000000 209.000000,126.000000 171.000000,126.000000 
M28.439079,112.732323 
	C37.026222,113.544846 37.033047,113.544830 37.014065,105.030586 
	C37.010368,103.373894 37.193920,101.655388 36.822056,100.075821 
	C36.311668,97.907875 35.353695,95.845291 34.587524,93.737556 
	C33.215870,94.671791 32.933342,95.170258 33.011864,95.603256 
	C33.535378,98.490112 34.094028,101.372154 34.720455,104.238464 
	C35.969200,109.952278 35.110638,111.031609 28.919882,110.192116 
	C28.293867,108.129471 27.303207,106.099091 27.117296,103.997513 
	C26.722946,99.539749 25.483339,95.701645 21.851328,92.655144 
	C23.005253,98.598022 23.941744,104.051949 25.214752,109.426163 
	C25.458998,110.457291 27.026262,111.175034 28.439079,112.732323 
M84.833084,37.846657 
	C79.863327,40.046928 74.842773,40.754585 69.495987,39.057034 
	C64.829773,37.575562 60.049080,36.437771 55.282742,35.299870 
	C54.017288,34.997757 52.618477,35.254227 51.280899,35.254227 
	C51.283203,35.683582 51.285503,36.112938 51.287807,36.542290 
	C58.339577,38.356750 65.313843,40.639549 72.469910,41.823696 
	C77.373505,42.635117 82.735008,42.956234 87.670059,38.832592 
	C91.907204,35.930904 96.144356,33.029217 100.381500,30.127529 
	C99.945145,29.534937 99.508781,28.942345 99.072426,28.349752 
	C94.578583,31.503960 90.084740,34.658169 84.833084,37.846657 
M58.904858,80.048958 
	C61.506477,79.521286 64.108093,78.993614 66.866440,78.434158 
	C63.390984,75.239807 62.590279,75.297798 56.121952,79.011398 
	C49.010773,82.755798 41.696083,82.780624 34.105999,80.570786 
	C25.621733,78.100609 17.044191,75.976036 6.332531,77.498634 
	C8.467885,80.719215 10.009120,83.043732 11.550356,85.368256 
	C12.033883,85.078407 12.517411,84.788567 13.000939,84.498718 
	C12.170742,82.786606 11.340546,81.074493 9.777805,77.851654 
	C19.109814,79.878387 27.184721,81.289017 35.058731,83.436325 
	C43.336956,85.693848 50.911797,84.846260 58.904858,80.048958 
M190.937027,78.040131 
	C190.964661,74.053932 191.408722,70.006294 190.833786,66.109001 
	C190.569901,64.320168 188.305359,62.826488 186.948074,61.198959 
	C185.948349,62.854103 184.118607,64.491852 184.083481,66.167221 
	C183.853699,77.126541 184.091003,88.094681 183.996277,99.058395 
	C183.967606,102.376465 186.101059,103.547714 188.552948,103.729576 
	C189.417007,103.793663 190.463821,101.394188 191.881027,100.251015 
	C192.188324,100.184784 192.496567,100.123276 192.990372,100.820824 
	C193.533157,104.766251 196.812439,103.504562 198.720016,103.171890 
	C199.974854,102.953049 201.629166,100.569847 201.728088,99.065353 
	C201.965546,95.454109 201.073273,91.769630 201.298965,88.156059 
	C201.391495,86.674751 203.190918,85.300056 204.213867,83.876854 
	C205.358597,85.276695 207.208755,86.546722 207.495453,88.104469 
	C208.027802,90.997208 207.305878,94.111000 207.759857,97.031120 
	C208.100204,99.220314 209.464905,101.250252 210.749405,104.220131 
	C215.622757,98.796547 214.046707,93.788536 214.247360,89.153389 
	C214.458023,84.287064 212.635254,80.256622 208.142365,78.061844 
	C203.898651,75.988777 200.049271,77.321251 196.926163,80.341103 
	C195.168625,79.873306 193.622437,79.461769 191.627701,78.833099 
	C191.627701,78.833099 191.142517,78.946701 190.937027,78.040131 
M236.971725,95.410812 
	C236.830032,88.109245 236.610840,80.807961 236.584167,73.505974 
	C236.573273,70.517647 235.925461,67.984398 232.580811,67.730736 
	C228.453522,67.417732 228.978867,70.813110 228.870453,73.339561 
	C228.719070,76.867630 228.832291,80.407066 228.832291,84.776634 
	C222.043167,81.287315 219.837051,86.095901 217.990845,89.421143 
	C215.911621,93.166107 215.281494,98.198204 218.908447,101.410568 
	C220.828659,103.111313 224.536194,102.794083 227.436844,103.387871 
	C229.432159,103.960129 231.606491,106.198997 233.609436,106.054947 
	C237.313934,105.788521 236.821854,102.124069 236.987473,99.361855 
	C237.046951,98.370163 236.987076,97.371307 236.971725,95.410812 
M161.383636,87.503944 
	C161.619400,83.125366 161.409912,79.064880 155.433517,79.035599 
	C153.348236,88.217476 153.348236,88.217476 150.193741,89.343269 
	C150.724228,86.394089 151.613998,83.867531 151.460754,81.405891 
	C151.366486,79.891762 149.955887,77.820786 148.607254,77.250061 
	C147.720993,76.875008 145.078613,78.419525 144.615143,79.635254 
	C141.461899,87.906601 145.999634,95.096786 154.941772,95.601768 
	C154.252838,99.427689 153.578140,103.174454 152.924911,106.802078 
	C148.552246,106.066971 144.955063,105.462227 141.357864,104.857491 
	C141.046387,105.562531 140.734909,106.267570 140.423431,106.972610 
	C144.560257,109.598015 148.564743,112.491653 152.933563,114.646805 
	C153.936554,115.141579 156.813477,113.508308 157.726685,112.126534 
	C159.129593,110.003769 160.042267,107.304504 160.337433,104.754318 
	C160.965805,99.324898 161.063339,93.834045 161.383636,87.503944 
M138.116287,81.601959 
	C136.252258,80.104660 134.370529,77.345695 132.527893,77.371574 
	C128.639481,77.426170 124.603508,78.548050 121.001999,80.099876 
	C119.978996,80.540665 120.093170,83.967094 119.984970,86.039932 
	C119.930000,87.092903 120.827408,88.187256 120.802742,89.251503 
	C120.642792,96.152145 120.114334,103.055359 120.283440,109.943581 
	C120.319435,111.409775 122.733368,112.817596 124.051765,114.252312 
	C125.103821,112.917854 126.878578,111.681107 127.074638,110.230919 
	C127.703766,105.577515 127.749161,100.845192 128.022568,96.094688 
	C136.386063,97.618568 140.408081,94.600174 139.739197,87.624268 
	C139.567596,85.834824 138.826187,84.100014 138.116287,81.601959 
M258.279968,77.245590 
	C252.880630,80.172272 250.082535,84.787651 249.642807,90.832420 
	C249.329941,95.133034 249.691360,99.761444 254.027191,101.592537 
	C257.054230,102.870895 260.911957,102.182243 264.398621,102.372200 
	C264.345428,102.061134 264.292267,101.750076 264.239075,101.439011 
	C266.570251,102.792076 268.901459,104.145142 271.270752,105.520317 
	C270.652313,102.472122 270.092438,100.398819 269.830383,98.288544 
	C269.128082,92.633125 272.931183,86.009682 266.190002,81.674889 
	C266.529053,75.925751 262.424500,77.122490 258.279968,77.245590 
M72.039986,92.342163 
	C70.903000,83.498055 69.222641,79.485786 66.641762,78.549370 
	C68.320389,86.582710 69.923553,94.879761 71.820007,103.109230 
	C73.066681,108.519043 74.451767,113.938690 76.403999,119.116730 
	C76.935287,120.525909 79.722641,121.714211 81.519783,121.780632 
	C82.600548,121.820580 84.141365,119.664688 84.800896,118.193260 
	C85.582298,116.449890 85.858963,114.394096 85.972282,112.451424 
	C86.714729,99.724190 87.037605,86.962273 88.187012,74.274147 
	C88.628410,69.401611 90.859772,64.687485 92.318588,59.914341 
	C92.577759,59.066345 93.048851,58.283119 93.554031,57.182529 
	C89.651093,58.173244 86.303482,62.875309 86.025490,67.626854 
	C85.579491,75.249931 85.322563,82.883980 84.973076,90.512810 
	C84.647354,97.623093 84.502106,104.750160 83.870750,111.833603 
	C83.626846,114.570015 82.263710,117.206680 81.410484,119.888786 
	C80.793610,119.797623 80.176735,119.706459 79.559868,119.615288 
	C74.255066,111.667496 75.347519,101.781990 72.039986,92.342163 
M99.564003,77.193031 
	C96.504448,78.382065 93.444893,79.571091 90.269875,80.804993 
	C90.645462,86.323204 91.082474,92.253807 91.436867,98.189354 
	C91.580688,100.598312 90.700493,103.697556 94.523727,103.779762 
	C98.610619,103.867638 98.004333,100.585686 98.043274,97.999756 
	C98.104538,93.930649 98.059555,89.859932 98.059555,85.193855 
	C99.717766,85.737984 100.672592,86.380844 101.525459,86.266075 
	C103.635536,85.982147 105.698944,85.351433 107.781105,84.860077 
	C106.952881,82.992256 106.491859,80.787842 105.183296,79.360336 
	C104.084656,78.161819 101.998177,77.868835 99.564003,77.193031 
M116.643013,84.280022 
	C114.935905,83.767914 113.228790,83.255798 110.867043,82.547302 
	C111.042000,90.487022 109.016113,97.714478 115.991669,103.760612 
	C116.354805,96.962486 116.671700,91.030098 116.643013,84.280022 
M239.899521,86.832893 
	C239.999390,92.641846 239.144730,98.736305 245.056351,103.582893 
	C245.537140,97.583549 246.169495,92.223495 246.248779,86.855278 
	C246.267670,85.575844 244.438843,84.269135 243.459869,82.974976 
	C242.287659,83.963837 241.115433,84.952698 239.899521,86.832893 
M17.002682,32.534763 
	C18.461561,33.483257 19.920441,34.431751 21.379320,35.380245 
	C21.632971,35.032558 21.886621,34.684872 22.140274,34.337185 
	C21.091208,33.115971 20.042141,31.894760 18.066643,29.595093 
	C24.153831,30.486126 28.895380,31.180185 33.636929,31.874245 
	C33.739368,31.203138 33.841805,30.532034 33.944241,29.860928 
	C28.983858,29.055122 24.038061,28.077929 19.045259,27.653002 
	C18.396154,27.597759 17.504822,30.388630 17.002682,32.534763 
M246.376144,70.433464 
	C244.867172,67.437843 242.583618,68.500015 241.120819,70.008865 
	C240.082260,71.080101 239.471207,73.377243 239.890350,74.756042 
	C240.156067,75.630119 243.438675,76.670837 244.008331,76.149849 
	C245.314056,74.955658 245.786438,72.850266 246.376144,70.433464 
M113.598801,76.314690 
	C116.844170,76.541679 117.718369,74.471420 117.308273,71.906769 
	C117.123154,70.749069 115.324593,68.760078 114.975418,68.902840 
	C113.292053,69.591095 111.375626,70.605095 110.539871,72.072090 
	C110.153702,72.749924 112.046669,74.726204 113.598801,76.314690 
M115.546913,20.959484 
	C111.638084,22.566401 107.729263,24.173319 103.820435,25.780237 
	C104.025208,26.321186 104.229973,26.862137 104.434746,27.403088 
	C110.902344,27.050228 116.590065,19.547136 123.672409,24.760267 
	C123.534744,20.621840 121.271767,19.388803 115.546913,20.959484 
M36.970676,45.321644 
	C36.058754,45.236286 35.146828,45.150925 34.234905,45.065567 
	C34.193264,45.325550 34.151623,45.585533 34.109982,45.845516 
	C38.828182,49.024719 43.546387,52.203926 48.264591,55.383129 
	C48.661057,54.779034 49.057526,54.174934 49.453995,53.570839 
	C45.466736,51.011173 41.479477,48.451508 36.970676,45.321644 
M102.674652,51.223030 
	C104.893631,49.503048 107.112602,47.783066 109.331581,46.063087 
	C108.949341,45.548134 108.567101,45.033180 108.184868,44.518230 
	C104.101601,47.445320 100.018333,50.372414 95.935066,53.299507 
	C96.144661,53.707596 96.354248,54.115685 96.563843,54.523777 
	C98.405128,53.579453 100.246422,52.635132 102.674652,51.223030 
M47.757595,33.578770 
	C43.107944,32.369911 38.458298,31.161058 33.808647,29.952202 
	C33.632824,30.814529 33.457001,31.676857 33.281174,32.539185 
	C38.103321,33.221916 42.925465,33.904648 47.757595,33.578770 
z"/>
<path fill="#121212" opacity="1.000000" stroke="none" 
	d="
M236.976700,95.893265 
	C236.987076,97.371307 237.046951,98.370163 236.987473,99.361855 
	C236.821854,102.124069 237.313934,105.788521 233.609436,106.054947 
	C231.606491,106.198997 229.432159,103.960129 227.436844,103.387871 
	C224.536194,102.794083 220.828659,103.111313 218.908447,101.410568 
	C215.281494,98.198204 215.911621,93.166107 217.990845,89.421143 
	C219.837051,86.095901 222.043167,81.287315 228.832291,84.776634 
	C228.832291,80.407066 228.719070,76.867630 228.870453,73.339561 
	C228.978867,70.813110 228.453522,67.417732 232.580811,67.730736 
	C235.925461,67.984398 236.573273,70.517647 236.584167,73.505974 
	C236.610840,80.807961 236.830032,88.109245 236.976700,95.893265 
M228.279388,97.075806 
	C227.213577,94.882698 226.147766,92.689583 224.859726,90.039185 
	C220.452606,95.975510 224.630814,98.180130 228.016190,101.544151 
	C228.223129,99.863029 228.350204,98.830696 228.279388,97.075806 
z"/>
<path fill="#0F0F0F" opacity="1.000000" stroke="none" 
	d="
M161.381027,87.936157 
	C161.063339,93.834045 160.965805,99.324898 160.337433,104.754318 
	C160.042267,107.304504 159.129593,110.003769 157.726685,112.126534 
	C156.813477,113.508308 153.936554,115.141579 152.933563,114.646805 
	C148.564743,112.491653 144.560257,109.598015 140.423431,106.972610 
	C140.734909,106.267570 141.046387,105.562531 141.357864,104.857491 
	C144.955063,105.462227 148.552246,106.066971 152.924911,106.802078 
	C153.578140,103.174454 154.252838,99.427689 154.941772,95.601768 
	C145.999634,95.096786 141.461899,87.906601 144.615143,79.635254 
	C145.078613,78.419525 147.720993,76.875008 148.607254,77.250061 
	C149.955887,77.820786 151.366486,79.891762 151.460754,81.405891 
	C151.613998,83.867531 150.724228,86.394089 150.193741,89.343269 
	C153.348236,88.217476 153.348236,88.217476 155.433517,79.035599 
	C161.409912,79.064880 161.619400,83.125366 161.381027,87.936157 
z"/>
<path fill="#121212" opacity="1.000000" stroke="none" 
	d="
M138.231415,81.971024 
	C138.826187,84.100014 139.567596,85.834824 139.739197,87.624268 
	C140.408081,94.600174 136.386063,97.618568 128.022568,96.094688 
	C127.749161,100.845192 127.703766,105.577515 127.074638,110.230919 
	C126.878578,111.681107 125.103821,112.917854 124.051758,114.252312 
	C122.733368,112.817596 120.319435,111.409775 120.283440,109.943581 
	C120.114334,103.055359 120.642792,96.152145 120.802742,89.251503 
	C120.827408,88.187256 119.930000,87.092903 119.984970,86.039932 
	C120.093170,83.967094 119.978996,80.540665 121.001999,80.099876 
	C124.603508,78.548050 128.639481,77.426170 132.527893,77.371574 
	C134.370529,77.345695 136.252258,80.104660 138.231415,81.971024 
M131.016174,84.409065 
	C129.848572,86.724442 128.680984,89.039810 127.513374,91.355179 
	C127.915817,91.770798 128.318253,92.186417 128.720703,92.602043 
	C130.437088,91.840576 133.511642,91.200012 133.592392,90.292931 
	C133.770660,88.290459 132.440979,86.153732 131.016174,84.409065 
z"/>
<path fill="#0F0F0F" opacity="1.000000" stroke="none" 
	d="
M258.681091,77.186630 
	C262.424500,77.122490 266.529053,75.925751 266.190002,81.674889 
	C272.931183,86.009682 269.128082,92.633125 269.830383,98.288544 
	C270.092438,100.398819 270.652313,102.472122 271.270752,105.520317 
	C268.901459,104.145142 266.570251,102.792076 264.239075,101.439011 
	C264.292267,101.750076 264.345428,102.061134 264.398621,102.372200 
	C260.911957,102.182243 257.054230,102.870895 254.027191,101.592537 
	C249.691360,99.761444 249.329941,95.133034 249.642807,90.832420 
	C250.082535,84.787651 252.880630,80.172272 258.681091,77.186630 
M258.212891,92.370377 
	C259.143433,93.059334 260.074005,93.748291 261.004547,94.437248 
	C261.919769,91.788918 262.834961,89.140587 263.750183,86.492249 
	C262.999176,86.202347 262.248169,85.912445 261.497162,85.622543 
	C260.414673,87.616707 259.332184,89.610863 258.212891,92.370377 
z"/>
<path fill="#0B0B0B" opacity="1.000000" stroke="none" 
	d="
M192.076248,79.050224 
	C193.622437,79.461769 195.168625,79.873306 196.926163,80.341103 
	C200.049271,77.321251 203.898651,75.988777 208.142365,78.061844 
	C212.635254,80.256622 214.458023,84.287064 214.247360,89.153389 
	C214.046707,93.788536 215.622757,98.796547 210.749405,104.220131 
	C209.464905,101.250252 208.100204,99.220314 207.759857,97.031120 
	C207.305878,94.111000 208.027802,90.997208 207.495453,88.104469 
	C207.208755,86.546722 205.358597,85.276695 204.213867,83.876854 
	C203.190918,85.300056 201.391495,86.674751 201.298965,88.156059 
	C201.073273,91.769630 201.965546,95.454109 201.728088,99.065353 
	C201.629166,100.569847 199.974854,102.953049 198.720016,103.171890 
	C196.812439,103.504562 193.533157,104.766251 192.948059,99.974533 
	C192.629242,92.435577 192.352737,85.742897 192.076248,79.050224 
z"/>
<path fill="#0C0C0C" opacity="1.000000" stroke="none" 
	d="
M191.427185,100.119537 
	C190.463821,101.394188 189.417007,103.793663 188.552948,103.729576 
	C186.101059,103.547714 183.967606,102.376465 183.996277,99.058395 
	C184.091003,88.094681 183.853699,77.126541 184.083481,66.167221 
	C184.118607,64.491852 185.948349,62.854103 186.948074,61.198963 
	C188.305359,62.826488 190.569901,64.320168 190.833786,66.109001 
	C191.408722,70.006294 190.964661,74.053932 190.881393,78.942772 
	C191.026245,86.603455 191.226715,93.361496 191.427185,100.119537 
z"/>
<path fill="#101010" opacity="1.000000" stroke="none" 
	d="
M72.116127,92.762634 
	C75.347519,101.781990 74.255066,111.667496 79.559868,119.615288 
	C80.176735,119.706459 80.793610,119.797623 81.410484,119.888786 
	C82.263710,117.206680 83.626846,114.570015 83.870750,111.833603 
	C84.502106,104.750160 84.647354,97.623093 84.973076,90.512810 
	C85.322563,82.883980 85.579491,75.249931 86.025490,67.626854 
	C86.303482,62.875309 89.651093,58.173244 93.554031,57.182529 
	C93.048851,58.283119 92.577759,59.066345 92.318588,59.914341 
	C90.859772,64.687485 88.628410,69.401611 88.187012,74.274147 
	C87.037605,86.962273 86.714729,99.724190 85.972282,112.451424 
	C85.858963,114.394096 85.582298,116.449890 84.800896,118.193260 
	C84.141365,119.664688 82.600548,121.820580 81.519783,121.780632 
	C79.722641,121.714211 76.935287,120.525909 76.403999,119.116730 
	C74.451767,113.938690 73.066681,108.519043 71.820007,103.109230 
	C69.923553,94.879761 68.320389,86.582710 66.641762,78.549370 
	C69.222641,79.485786 70.903000,83.498055 72.116127,92.762634 
z"/>
<path fill="#111111" opacity="1.000000" stroke="none" 
	d="
M99.956520,77.183990 
	C101.998177,77.868835 104.084656,78.161819 105.183296,79.360336 
	C106.491859,80.787842 106.952881,82.992256 107.781105,84.860077 
	C105.698944,85.351433 103.635536,85.982147 101.525459,86.266075 
	C100.672592,86.380844 99.717766,85.737984 98.059555,85.193855 
	C98.059555,89.859932 98.104538,93.930649 98.043274,97.999756 
	C98.004333,100.585686 98.610619,103.867638 94.523727,103.779762 
	C90.700493,103.697556 91.580688,100.598312 91.436867,98.189354 
	C91.082474,92.253807 90.645462,86.323204 90.269875,80.804993 
	C93.444893,79.571091 96.504448,78.382065 99.956520,77.183990 
z"/>
<path fill="#121212" opacity="1.000000" stroke="none" 
	d="
M58.110233,80.258415 
	C50.911797,84.846260 43.336956,85.693848 35.058731,83.436325 
	C27.184721,81.289017 19.109814,79.878387 9.777805,77.851654 
	C11.340546,81.074493 12.170742,82.786606 13.000939,84.498718 
	C12.517411,84.788567 12.033883,85.078407 11.550356,85.368256 
	C10.009120,83.043732 8.467885,80.719215 6.332531,77.498634 
	C17.044191,75.976036 25.621733,78.100609 34.105999,80.570786 
	C41.696083,82.780624 49.010773,82.755798 56.766968,79.129738 
	C57.644733,79.584854 57.877483,79.921638 58.110233,80.258415 
z"/>
<path fill="#101010" opacity="1.000000" stroke="none" 
	d="
M116.815804,84.688873 
	C116.671700,91.030098 116.354805,96.962486 115.991669,103.760612 
	C109.016113,97.714478 111.042000,90.487022 110.867043,82.547302 
	C113.228790,83.255798 114.935905,83.767914 116.815804,84.688873 
z"/>
<path fill="#0E0E0E" opacity="1.000000" stroke="none" 
	d="
M239.921371,86.387222 
	C241.115433,84.952698 242.287659,83.963837 243.459869,82.974976 
	C244.438843,84.269135 246.267670,85.575844 246.248779,86.855278 
	C246.169495,92.223495 245.537140,97.583549 245.056351,103.582893 
	C239.144730,98.736305 239.999390,92.641846 239.921371,86.387222 
z"/>
<path fill="#111111" opacity="1.000000" stroke="none" 
	d="
M87.026169,39.108688 
	C82.735008,42.956234 77.373505,42.635117 72.469910,41.823696 
	C65.313843,40.639549 58.339577,38.356750 51.287807,36.542290 
	C51.285503,36.112938 51.283203,35.683582 51.280899,35.254227 
	C52.618477,35.254227 54.017288,34.997757 55.282742,35.299870 
	C60.049080,36.437771 64.829773,37.575562 69.495987,39.057034 
	C74.842773,40.754585 79.863327,40.046928 85.508575,37.977501 
	C86.464760,38.441795 86.745468,38.775242 87.026169,39.108688 
z"/>
<path fill="#121212" opacity="1.000000" stroke="none" 
	d="
M29.344040,110.854675 
	C35.110638,111.031609 35.969200,109.952278 34.720455,104.238464 
	C34.094028,101.372154 33.535378,98.490112 33.011864,95.603256 
	C32.933342,95.170258 33.215870,94.671791 34.587524,93.737556 
	C35.353695,95.845291 36.311668,97.907875 36.822056,100.075821 
	C37.193920,101.655388 37.010368,103.373894 37.014065,105.030586 
	C37.033047,113.544830 37.026222,113.544846 28.373808,112.122002 
	C28.653704,111.292679 28.998871,111.073677 29.344040,110.854675 
z"/>
<path fill="#171717" opacity="1.000000" stroke="none" 
	d="
M16.864185,32.197975 
	C17.504822,30.388630 18.396154,27.597759 19.045259,27.653002 
	C24.038061,28.077929 28.983858,29.055122 33.944241,29.860928 
	C33.841805,30.532034 33.739368,31.203138 33.636929,31.874245 
	C28.895380,31.180185 24.153831,30.486126 18.066643,29.595093 
	C20.042141,31.894760 21.091208,33.115971 22.140274,34.337185 
	C21.886621,34.684872 21.632971,35.032558 21.379320,35.380245 
	C19.920441,34.431751 18.461561,33.483257 16.864185,32.197975 
z"/>
<path fill="#1E1E1E" opacity="1.000000" stroke="none" 
	d="
M246.486664,70.774155 
	C245.786438,72.850266 245.314056,74.955658 244.008331,76.149849 
	C243.438675,76.670837 240.156067,75.630119 239.890350,74.756042 
	C239.471207,73.377243 240.082260,71.080101 241.120819,70.008865 
	C242.583618,68.500015 244.867172,67.437843 246.486664,70.774155 
z"/>
<path fill="#1C1C1C" opacity="1.000000" stroke="none" 
	d="
M113.252548,76.214233 
	C112.046669,74.726204 110.153702,72.749924 110.539871,72.072090 
	C111.375626,70.605095 113.292053,69.591095 114.975418,68.902840 
	C115.324593,68.760078 117.123154,70.749069 117.308273,71.906769 
	C117.718369,74.471420 116.844170,76.541679 113.252548,76.214233 
z"/>
<path fill="#181818" opacity="1.000000" stroke="none" 
	d="
M115.943703,20.912031 
	C121.271767,19.388803 123.534744,20.621840 123.672409,24.760267 
	C116.590065,19.547136 110.902344,27.050228 104.434746,27.403088 
	C104.229973,26.862137 104.025208,26.321186 103.820435,25.780237 
	C107.729263,24.173319 111.638084,22.566401 115.943703,20.912031 
z"/>
<path fill="#181818" opacity="1.000000" stroke="none" 
	d="
M29.131962,110.523392 
	C28.998871,111.073677 28.653704,111.292679 28.145851,111.774521 
	C27.026262,111.175034 25.458998,110.457291 25.214752,109.426163 
	C23.941744,104.051949 23.005253,98.598022 21.851328,92.655144 
	C25.483339,95.701645 26.722946,99.539749 27.117296,103.997513 
	C27.303207,106.099091 28.293867,108.129471 29.131962,110.523392 
z"/>
<path fill="#1B1B1B" opacity="1.000000" stroke="none" 
	d="
M37.231445,45.606743 
	C41.479477,48.451508 45.466736,51.011173 49.453995,53.570839 
	C49.057526,54.174934 48.661057,54.779034 48.264591,55.383129 
	C43.546387,52.203926 38.828182,49.024719 34.109982,45.845516 
	C34.151623,45.585533 34.193264,45.325550 34.234905,45.065567 
	C35.146828,45.150925 36.058754,45.236286 37.231445,45.606743 
z"/>
<path fill="#C0C0C0" opacity="1.000000" stroke="none" 
	d="
M191.654114,100.185272 
	C191.226715,93.361496 191.026245,86.603455 190.984131,79.396057 
	C191.142517,78.946701 191.627701,78.833099 191.851974,78.941666 
	C192.352737,85.742897 192.629242,92.435577 192.855743,99.597374 
	C192.496567,100.123276 192.188324,100.184784 191.654114,100.185272 
z"/>
<path fill="#1C1C1C" opacity="1.000000" stroke="none" 
	d="
M87.348114,38.970642 
	C86.745468,38.775242 86.464760,38.441795 85.887482,37.960361 
	C90.084740,34.658169 94.578583,31.503960 99.072426,28.349752 
	C99.508781,28.942345 99.945145,29.534937 100.381500,30.127529 
	C96.144356,33.029217 91.907204,35.930904 87.348114,38.970642 
z"/>
<path fill="#212121" opacity="1.000000" stroke="none" 
	d="
M102.381180,51.456917 
	C100.246422,52.635132 98.405128,53.579453 96.563843,54.523777 
	C96.354248,54.115685 96.144661,53.707596 95.935066,53.299507 
	C100.018333,50.372414 104.101601,47.445320 108.184868,44.518230 
	C108.567101,45.033180 108.949341,45.548134 109.331581,46.063087 
	C107.112602,47.783066 104.893631,49.503048 102.381180,51.456917 
z"/>
<path fill="#111111" opacity="1.000000" stroke="none" 
	d="
M47.752602,34.083073 
	C42.925465,33.904648 38.103321,33.221916 33.281174,32.539185 
	C33.457001,31.676857 33.632824,30.814529 33.808647,29.952202 
	C38.458298,31.161058 43.107944,32.369911 47.752602,34.083073 
z"/>
<path fill="#181818" opacity="1.000000" stroke="none" 
	d="
M58.507545,80.153687 
	C57.877483,79.921638 57.644733,79.584854 57.142601,79.094513 
	C62.590279,75.297798 63.390984,75.239807 66.866440,78.434158 
	C64.108093,78.993614 61.506477,79.521286 58.507545,80.153687 
z"/>
<path fill="#E0E0E0" opacity="1.000000" stroke="none" 
	d="
M228.378326,97.437080 
	C228.350204,98.830696 228.223129,99.863029 228.016190,101.544151 
	C224.630814,98.180130 220.452606,95.975510 224.859726,90.039185 
	C226.147766,92.689583 227.213577,94.882698 228.378326,97.437080 
z"/>
<path fill="#EEEEEE" opacity="1.000000" stroke="none" 
	d="
M131.371353,84.240425 
	C132.440979,86.153732 133.770660,88.290459 133.592392,90.292931 
	C133.511642,91.200012 130.437088,91.840576 128.720703,92.602043 
	C128.318253,92.186417 127.915817,91.770798 127.513374,91.355179 
	C128.680984,89.039810 129.848572,86.724442 131.371353,84.240425 
z"/>
<path fill="#E2E2E2" opacity="1.000000" stroke="none" 
	d="
M258.231262,91.987701 
	C259.332184,89.610863 260.414673,87.616707 261.497162,85.622543 
	C262.248169,85.912445 262.999176,86.202347 263.750183,86.492249 
	C262.834961,89.140587 261.919769,91.788918 261.004547,94.437248 
	C260.074005,93.748291 259.143433,93.059334 258.231262,91.987701 
z"/>
</svg>