<?xml version="1.0" standalone="no"?>
<!DOCTYPE svg PUBLIC "-//W3C//DTD SVG 20010904//EN"
 "http://www.w3.org/TR/2001/REC-SVG-20010904/DTD/svg10.dtd">
<svg version="1.0" xmlns="http://www.w3.org/2000/svg"
 width="1080.000000pt" height="1080.000000pt" viewBox="0 0 1080.000000 1080.000000"
 preserveAspectRatio="xMidYMid meet">

<g transform="translate(0.000000,1080.000000) scale(0.100000,-0.100000)"
fill="#000000" stroke="none">
<path d="M1322 10325 c-39 -19 -100 -53 -134 -76 -92 -63 -119 -63 -368 0
-219 56 -273 60 -278 25 -2 -17 18 -38 100 -98 131 -97 188 -145 188 -157 0
-5 -19 -28 -42 -49 -46 -43 -35 -53 20 -20 38 24 58 65 44 95 -5 12 -63 60
-129 107 -131 95 -156 118 -127 118 9 0 111 -22 226 -50 115 -27 228 -50 251
-50 35 0 64 13 157 68 137 81 187 103 216 92 25 -10 37 -36 27 -55 -10 -16
-121 -108 -221 -182 -104 -77 -108 -90 -116 -333 -7 -182 -16 -250 -37 -250
-16 0 -28 36 -58 175 -44 198 -58 213 -160 170 -72 -30 -121 -31 -221 -5 -93
24 -188 27 -197 5 -3 -10 17 -41 57 -86 72 -81 100 -130 100 -175 0 -35 13
-44 60 -44 19 0 33 7 40 20 11 21 3 119 -11 141 -17 26 -26 -9 -18 -64 9 -55
2 -71 -27 -65 -14 2 -21 16 -26 51 -8 56 -32 97 -87 152 -23 21 -41 44 -41 51
0 12 76 3 171 -21 78 -20 139 -19 199 5 62 25 87 25 98 3 5 -10 22 -82 37
-161 29 -148 49 -192 86 -192 38 0 51 59 59 265 10 254 15 268 160 369 41 29
99 75 128 103 44 41 52 55 52 84 0 76 -64 89 -178 34z"/>
<path d="M2042 9878 c-15 -15 -17 -304 -3 -341 9 -23 14 -25 75 -22 37 1 70 5
74 9 4 4 6 38 4 76 -4 111 39 109 48 -2 4 -43 10 -64 22 -72 30 -18 43 8 42
85 0 110 -49 157 -135 129 -38 -13 -42 -12 -55 5 -8 10 -14 42 -14 70 0 49
-12 75 -35 75 -6 0 -16 -5 -23 -12z"/>
<path d="M2426 9814 c-3 -9 -6 -38 -6 -65 0 -43 -3 -49 -21 -49 -11 0 -34 -13
-50 -29 -23 -24 -29 -38 -29 -75 0 -51 19 -76 57 -76 14 0 38 -8 54 -17 22
-13 34 -15 47 -7 15 10 17 32 20 159 2 100 -1 152 -9 161 -16 19 -55 18 -63
-2z m-6 -246 c0 -13 -17 -9 -30 7 -6 8 -8 20 -4 26 5 9 11 7 21 -6 7 -11 13
-22 13 -27z"/>
<path d="M1402 9811 c-21 -13 -11 -55 14 -59 27 -4 47 21 39 48 -7 21 -30 26
-53 11z"/>
<path d="M2519 9798 c-10 -18 -8 -24 7 -35 29 -21 49 -12 52 25 3 28 0 32 -22
32 -16 0 -30 -8 -37 -22z"/>
<path d="M1242 9735 l-33 -14 7 -83 c8 -94 18 -128 37 -128 26 0 37 25 37 86
l0 63 38 3 c31 3 37 7 40 29 2 14 -4 31 -12 38 -23 19 -78 22 -114 6z"/>
<path d="M1525 9739 c-22 -5 -43 -13 -47 -17 -4 -4 -4 -72 0 -152 7 -140 8
-145 29 -148 28 -4 43 29 43 97 l0 47 45 12 c54 14 68 40 55 98 -9 41 -41 75
-69 73 -9 -1 -34 -5 -56 -10z m65 -89 c0 -11 -7 -20 -15 -20 -17 0 -18 2 -9
24 9 23 24 20 24 -4z"/>
<path d="M1688 9725 c-21 -47 22 -145 64 -145 13 0 18 -7 18 -29 0 -36 -13
-45 -65 -46 -58 0 -59 -26 -2 -59 98 -58 129 -24 135 147 5 116 -3 141 -42
135 -16 -2 -22 -11 -24 -35 -2 -18 -8 -33 -14 -33 -6 0 -8 12 -4 31 11 56 -43
84 -66 34z"/>
<path d="M2654 9732 c-42 -33 -61 -108 -43 -160 13 -39 35 -52 86 -52 21 0 52
-4 69 -9 l31 -9 -4 72 c-6 112 -12 134 -40 156 -31 24 -71 25 -99 2z m66 -94
c0 -7 -4 -19 -9 -27 -11 -17 -25 3 -17 24 7 18 26 20 26 3z"/>
<path d="M1400 9685 c-18 -22 -8 -120 15 -145 25 -28 32 -17 38 63 4 51 1 71
-10 82 -18 19 -27 19 -43 0z"/>
<path d="M2524 9685 c-12 -29 2 -135 19 -152 9 -9 20 -14 23 -10 4 4 7 44 8
89 1 79 0 83 -22 86 -13 2 -25 -3 -28 -13z"/>
</g>
</svg>
